<svg version="1.2" xmlns="http://www.w3.org/2000/svg" viewBox="0 0 172 172" width="172" height="172"><style>.s0{opacity: .7;fill:#ffffff}</style><g style="opacity: 1"><g style="opacity: 1"><path class="s0" d="m0 1.9c0-1 0.8-1.9 1.9-1.9c1 0 1.8 0.9 1.8 1.9c0 1.1-0.8 1.9-1.8 1.9c-1.1 0-1.9-0.8-1.9-1.9z" /><path class="s0" d="m16.8 1.9c0-1 0.9-1.9 1.9-1.9c1 0 1.9 0.9 1.9 1.9c0 1.1-0.9 1.9-1.9 1.9c-1 0-1.9-0.8-1.9-1.9z" /><path class="s0" d="m33.7 1.9c0-1 0.8-1.9 1.8-1.9c1.1 0 1.9 0.9 1.9 1.9c0 1.1-0.8 1.9-1.9 1.9c-1 0-1.8-0.8-1.8-1.9z" /><path class="s0" d="m50.5 1.9c0-1 0.8-1.9 1.8-1.9c1.1 0 1.9 0.9 1.9 1.9c0 1.1-0.8 1.9-1.9 1.9c-1 0-1.8-0.8-1.8-1.9z" /><path class="s0" d="m67.3 1.9c0-1 0.8-1.9 1.9-1.9c1 0 1.9 0.9 1.9 1.9c0 1.1-0.9 1.9-1.9 1.9c-1.1 0-1.9-0.8-1.9-1.9z" /><path class="s0" d="m87.9 1.9c0 1.1-0.9 1.9-1.9 1.9c-1 0-1.9-0.8-1.9-1.9c0-1 0.9-1.9 1.9-1.9c1 0 1.9 0.8 1.9 1.9z" /><path class="s0" d="m100.9 1.9c0-1 0.9-1.9 1.9-1.9c1.1 0 1.9 0.9 1.9 1.9c0 1.1-0.8 1.9-1.9 1.9c-1 0-1.9-0.8-1.9-1.9z" /><path class="s0" d="m121.5 1.9c0 1.1-0.8 1.9-1.9 1.9c-1 0-1.8-0.8-1.8-1.9c0-1 0.8-1.9 1.8-1.9c1.1 0 1.9 0.8 1.9 1.9z" /><path class="s0" d="m134.6 1.9c0-1 0.8-1.9 1.9-1.9c1 0 1.8 0.9 1.8 1.9c0 1.1-0.8 1.9-1.8 1.9c-1.1 0-1.9-0.8-1.9-1.9z" /><path class="s0" d="m155.2 1.9c0 1.1-0.9 1.9-1.9 1.9c-1 0-1.9-0.8-1.9-1.9c0-1 0.9-1.9 1.9-1.9c1 0 1.9 0.8 1.9 1.9z" /><path class="s0" d="m168.3 1.9c0-1 0.8-1.9 1.8-1.9c1.1 0 1.9 0.9 1.9 1.9c0 1.1-0.8 1.9-1.9 1.9c-1 0-1.8-0.8-1.8-1.9z" /></g><g style="opacity: 1"><path class="s0" d="m0 17.2c0-1.1 0.8-1.9 1.9-1.9c1 0 1.8 0.8 1.8 1.9c0 1.1-0.8 1.9-1.8 1.9c-1.1 0-1.9-0.8-1.9-1.9z" /><path class="s0" d="m16.8 17.2c0-1.1 0.9-1.9 1.9-1.9c1 0 1.9 0.8 1.9 1.9c0 1.1-0.9 1.9-1.9 1.9c-1 0-1.9-0.8-1.9-1.9z" /><path class="s0" d="m33.7 17.2c0-1.1 0.8-1.9 1.8-1.9c1.1 0 1.9 0.8 1.9 1.9c0 1.1-0.8 1.9-1.9 1.9c-1 0-1.8-0.8-1.8-1.9z" /><path class="s0" d="m50.5 17.2c0-1.1 0.8-1.9 1.8-1.9c1.1 0 1.9 0.8 1.9 1.9c0 1.1-0.8 1.9-1.9 1.9c-1 0-1.8-0.8-1.8-1.9z" /><path class="s0" d="m67.3 17.2c0-1.1 0.8-1.9 1.9-1.9c1 0 1.9 0.8 1.9 1.9c0 1.1-0.9 1.9-1.9 1.9c-1.1 0-1.9-0.8-1.9-1.9z" /><path class="s0" d="m87.9 17.2c0 1-0.9 1.9-1.9 1.9c-1 0-1.9-0.8-1.9-1.9c0-1.1 0.9-1.9 1.9-1.9c1 0 1.9 0.8 1.9 1.9z" /><path class="s0" d="m100.9 17.2c0-1.1 0.9-1.9 1.9-1.9c1.1 0 1.9 0.8 1.9 1.9c0 1.1-0.8 1.9-1.9 1.9c-1 0-1.9-0.8-1.9-1.9z" /><path class="s0" d="m121.5 17.2c0 1-0.8 1.9-1.9 1.9c-1 0-1.8-0.8-1.8-1.9c0-1.1 0.8-1.9 1.8-1.9c1.1 0 1.9 0.8 1.9 1.9z" /><path class="s0" d="m134.6 17.2c0-1.1 0.8-1.9 1.9-1.9c1 0 1.8 0.8 1.8 1.9c0 1.1-0.8 1.9-1.8 1.9c-1.1 0-1.9-0.8-1.9-1.9z" /><path class="s0" d="m155.2 17.2c0 1-0.9 1.9-1.9 1.9c-1 0-1.9-0.8-1.9-1.9c0-1.1 0.9-1.9 1.9-1.9c1 0 1.9 0.8 1.9 1.9z" /><path class="s0" d="m168.3 17.2c-0.1-1.1 0.8-1.9 1.8-1.9c1.1 0 1.9 0.8 1.9 1.9c0 1.1-0.8 1.9-1.9 1.9c-1 0-1.9-0.8-1.9-1.9z" /></g><g style="opacity: 1"><path class="s0" d="m3.7 32.5c0 1-0.8 1.9-1.8 1.9c-1.1 0-1.9-0.9-1.9-1.9c0-1.1 0.8-1.9 1.9-1.9c1 0 1.8 0.8 1.8 1.9z" /><path class="s0" d="m20.6 32.5c0 1-0.9 1.9-1.9 1.9c-1 0-1.9-0.9-1.9-1.9c0-1.1 0.9-1.9 1.9-1.9c1 0 1.9 0.8 1.9 1.9z" /><path class="s0" d="m37.4 32.5c0 1-0.9 1.9-1.9 1.9c-1 0-1.9-0.9-1.9-1.9c0-1.1 0.9-1.9 1.9-1.9c1.1 0 1.9 0.8 1.9 1.9z" /><path class="s0" d="m54.2 32.5c0 1-0.8 1.9-1.9 1.9c-1 0-1.8-0.9-1.8-1.9c0-1.1 0.8-1.9 1.8-1.9c1.1 0 1.9 0.8 1.9 1.9z" /><path class="s0" d="m71 32.5c0 1-0.8 1.9-1.8 1.9c-1.1 0-1.9-0.9-1.9-1.9c0-1.1 0.8-1.9 1.9-1.9c1 0 1.8 0.8 1.8 1.9z" /><path class="s0" d="m87.9 32.5c0 1-0.9 1.9-1.9 1.9c-1 0-1.9-0.9-1.9-1.9c0-1.1 0.9-1.9 1.9-1.9c1 0 1.9 0.8 1.9 1.9z" /><path class="s0" d="m104.7 32.5c0 1-0.8 1.9-1.9 1.9c-1 0-1.9-0.9-1.9-1.9c0-1.1 0.9-1.9 1.9-1.9c1.1 0 1.9 0.8 1.9 1.9z" /><path class="s0" d="m121.5 32.5c0 1-0.8 1.9-1.9 1.9c-1 0-1.8-0.9-1.8-1.9c0-1.1 0.8-1.9 1.8-1.9c1.1 0 1.9 0.8 1.9 1.9z" /><path class="s0" d="m138.3 32.5c0 1-0.8 1.9-1.8 1.9c-1.1 0-1.9-0.9-1.9-1.9c0-1.1 0.8-1.9 1.9-1.9c1 0 1.8 0.8 1.8 1.9z" /><path class="s0" d="m155.2 32.5c0 1-0.9 1.9-1.9 1.9c-1 0-1.9-0.9-1.9-1.9c0-1.1 0.9-1.9 1.9-1.9c1 0 1.9 0.8 1.9 1.9z" /><path class="s0" d="m172 32.5c0 1-0.8 1.9-1.9 1.9c-1 0-1.9-0.9-1.9-1.9c0-1.1 0.9-1.9 1.9-1.9c1.1 0 1.9 0.8 1.9 1.9z" /></g><g style="opacity: 1"><path class="s0" d="m3.7 47.8c0 1-0.8 1.9-1.8 1.9c-1.1 0-1.9-0.9-1.9-1.9c0-1.1 0.8-1.9 1.9-1.9c1 0 1.8 0.8 1.8 1.9z" /><path class="s0" d="m20.6 47.8c0 1-0.9 1.9-1.9 1.9c-1 0-1.9-0.9-1.9-1.9c0-1.1 0.9-1.9 1.9-1.9c1 0 1.9 0.8 1.9 1.9z" /><path class="s0" d="m37.4 47.8c0 1-0.9 1.9-1.9 1.9c-1 0-1.9-0.9-1.9-1.9c0-1.1 0.9-1.9 1.9-1.9c1.1 0 1.9 0.8 1.9 1.9z" /><path class="s0" d="m54.2 47.8c0 1-0.8 1.9-1.9 1.9c-1 0-1.8-0.9-1.8-1.9c0-1.1 0.8-1.9 1.8-1.9c1.1 0 1.9 0.8 1.9 1.9z" /><path class="s0" d="m71 47.8c0 1-0.8 1.9-1.8 1.9c-1.1 0-1.9-0.9-1.9-1.9c0-1.1 0.8-1.9 1.9-1.9c1 0 1.8 0.8 1.8 1.9z" /><path class="s0" d="m87.9 47.8c0 1-0.9 1.9-1.9 1.9c-1 0-1.9-0.9-1.9-1.9c0-1.1 0.9-1.9 1.9-1.9c1 0 1.9 0.8 1.9 1.9z" /><path class="s0" d="m104.7 47.8c0 1-0.8 1.9-1.9 1.9c-1 0-1.9-0.9-1.9-1.9c0-1.1 0.9-1.9 1.9-1.9c1.1 0 1.9 0.8 1.9 1.9z" /><path class="s0" d="m121.5 47.8c0 1-0.8 1.9-1.9 1.9c-1 0-1.8-0.9-1.8-1.9c0-1.1 0.8-1.9 1.8-1.9c1.1 0 1.9 0.8 1.9 1.9z" /><path class="s0" d="m138.3 47.8c0 1-0.8 1.9-1.8 1.9c-1.1 0-1.9-0.9-1.9-1.9c0-1.1 0.8-1.9 1.9-1.9c1 0 1.8 0.8 1.8 1.9z" /><path class="s0" d="m155.2 47.8c0 1-0.9 1.9-1.9 1.9c-1 0-1.9-0.9-1.9-1.9c0-1.1 0.9-1.9 1.9-1.9c1 0 1.9 0.8 1.9 1.9z" /><path class="s0" d="m172 47.8c0 1-0.8 1.9-1.9 1.9c-1 0-1.9-0.9-1.9-1.9c0-1.1 0.9-1.9 1.9-1.9c1.1 0 1.9 0.8 1.9 1.9z" /></g><g style="opacity: 1"><path class="s0" d="m0 63.1c0-1.1 0.8-1.9 1.9-1.9c1 0 1.8 0.8 1.8 1.9c0 1-0.8 1.9-1.8 1.9c-1.1 0-1.9-0.9-1.9-1.9z" /><path class="s0" d="m16.8 63.1c0-1.1 0.9-1.9 1.9-1.9c1 0 1.9 0.8 1.9 1.9c0 1-0.9 1.9-1.9 1.9c-1 0-1.9-0.9-1.9-1.9z" /><path class="s0" d="m33.7 63.1c0-1.1 0.8-1.9 1.8-1.9c1.1 0 1.9 0.8 1.9 1.9c0 1-0.8 1.9-1.9 1.9c-1 0-1.8-0.9-1.8-1.9z" /><path class="s0" d="m50.5 63.1c0-1.1 0.8-1.9 1.8-1.9c1.1 0 1.9 0.8 1.9 1.9c0 1-0.8 1.9-1.9 1.9c-1 0-1.8-0.9-1.8-1.9z" /><path class="s0" d="m67.3 63.1c0-1.1 0.8-1.9 1.9-1.9c1 0 1.9 0.8 1.9 1.9c0 1-0.9 1.9-1.9 1.9c-1.1 0-1.9-0.9-1.9-1.9z" /><path class="s0" d="m87.9 63.1c0 1-0.9 1.9-1.9 1.9c-1 0-1.9-0.9-1.9-1.9c0-1.1 0.9-1.9 1.9-1.9c1 0 1.9 0.8 1.9 1.9z" /><path class="s0" d="m100.9 63.1c0-1.1 0.9-1.9 1.9-1.9c1.1 0 1.9 0.8 1.9 1.9c0 1-0.8 1.9-1.9 1.9c-1 0-1.9-0.9-1.9-1.9z" /><path class="s0" d="m121.5 63.1c0 1-0.8 1.9-1.9 1.9c-1 0-1.8-0.9-1.8-1.9c0-1.1 0.8-1.9 1.8-1.9c1.1 0 1.9 0.8 1.9 1.9z" /><path class="s0" d="m134.6 63.1c0-1.1 0.8-1.9 1.9-1.9c1 0 1.8 0.8 1.8 1.9c0 1-0.8 1.9-1.8 1.9c-1.1 0-1.9-0.9-1.9-1.9z" /><path class="s0" d="m155.2 63.1c0 1-0.9 1.9-1.9 1.9c-1 0-1.9-0.9-1.9-1.9c0-1.1 0.9-1.9 1.9-1.9c1 0 1.9 0.8 1.9 1.9z" /><path class="s0" d="m168.3 63.1c-0.1-1.1 0.8-1.9 1.8-1.9c1.1 0 1.9 0.8 1.9 1.9c0 1-0.8 1.9-1.9 1.9c-1 0-1.9-0.9-1.9-1.9z" /></g><g style="opacity: 1"><path class="s0" d="m0 78.4c0-1.1 0.8-2 1.9-2c1 0 1.8 0.9 1.8 2c0 1-0.8 1.9-1.8 1.9c-1.1 0-1.9-0.9-1.9-1.9z" /><path class="s0" d="m16.8 78.4c0-1.1 0.9-2 1.9-2c1 0 1.9 0.9 1.9 2c0 1-0.9 1.9-1.9 1.9c-1 0-1.9-0.9-1.9-1.9z" /><path class="s0" d="m33.7 78.4c0-1.1 0.8-2 1.8-2c1.1 0 1.9 0.9 1.9 2c0 1-0.8 1.9-1.9 1.9c-1 0-1.8-0.9-1.8-1.9z" /><path class="s0" d="m50.5 78.4c0-1.1 0.8-2 1.8-2c1.1 0 1.9 0.9 1.9 2c0 1-0.8 1.9-1.9 1.9c-1 0-1.8-0.9-1.8-1.9z" /><path class="s0" d="m67.3 78.4c0-1.1 0.8-2 1.9-2c1 0 1.9 0.9 1.9 2c0 1-0.9 1.9-1.9 1.9c-1.1 0-1.9-0.9-1.9-1.9z" /><path class="s0" d="m87.9 78.4c0 1-0.9 1.9-1.9 1.9c-1 0-1.9-0.9-1.9-1.9c0-1.1 0.9-2 1.9-2c1 0 1.9 0.9 1.9 2z" /><path class="s0" d="m100.9 78.4c0-1.1 0.9-2 1.9-2c1.1 0 1.9 0.9 1.9 2c0 1-0.8 1.9-1.9 1.9c-1 0-1.9-0.9-1.9-1.9z" /><path class="s0" d="m121.5 78.4c0 1-0.8 1.9-1.9 1.9c-1 0-1.8-0.9-1.8-1.9c0-1.1 0.8-2 1.8-2c1.1 0 1.9 0.9 1.9 2z" /><path class="s0" d="m134.6 78.4c0-1.1 0.8-2 1.9-2c1 0 1.8 0.9 1.8 2c0 1-0.8 1.9-1.8 1.9c-1.1 0-1.9-0.9-1.9-1.9z" /><path class="s0" d="m155.2 78.4c0 1-0.9 1.9-1.9 1.9c-1 0-1.9-0.9-1.9-1.9c0-1.1 0.9-2 1.9-2c1 0 1.9 0.9 1.9 2z" /><path class="s0" d="m168.3 78.4c-0.1-1.1 0.8-2 1.8-2c1.1 0 1.9 0.9 1.9 2c0 1-0.8 1.9-1.9 1.9c-1 0-1.9-0.9-1.9-1.9z" /></g><g style="opacity: 1"><path class="s0" d="m0 93.6c0-1 0.8-1.9 1.9-1.9c1 0 1.8 0.9 1.8 1.9c0 1.1-0.8 2-1.8 2c-1.1 0-1.9-0.9-1.9-2z" /><path class="s0" d="m16.8 93.6c0-1 0.9-1.9 1.9-1.9c1 0 1.9 0.9 1.9 1.9c0 1.1-0.9 2-1.9 2c-1 0-1.9-0.9-1.9-2z" /><path class="s0" d="m33.7 93.6c0-1 0.8-1.9 1.8-1.9c1.1 0 1.9 0.9 1.9 1.9c0 1.1-0.8 2-1.9 2c-1 0-1.8-0.9-1.8-2z" /><path class="s0" d="m50.5 93.6c0-1 0.8-1.9 1.8-1.9c1.1 0 1.9 0.9 1.9 1.9c0 1.1-0.8 2-1.9 2c-1 0-1.8-0.9-1.8-2z" /><path class="s0" d="m67.3 93.6c0-1 0.8-1.9 1.9-1.9c1 0 1.9 0.9 1.9 1.9c0 1.1-0.9 2-1.9 2c-1.1 0-1.9-0.9-1.9-2z" /><path class="s0" d="m87.9 93.6c0 1.1-0.9 2-1.9 2c-1 0-1.9-0.9-1.9-2c0-1 0.9-1.9 1.9-1.9c1 0 1.9 0.9 1.9 1.9z" /><path class="s0" d="m100.9 93.6c0-1 0.9-1.9 1.9-1.9c1.1 0 1.9 0.9 1.9 1.9c0 1.1-0.8 2-1.9 2c-1 0-1.9-0.9-1.9-2z" /><path class="s0" d="m121.5 93.6c0 1.1-0.8 2-1.9 2c-1 0-1.8-0.9-1.8-2c0-1 0.8-1.9 1.8-1.9c1.1 0 1.9 0.9 1.9 1.9z" /><path class="s0" d="m134.6 93.6c0-1 0.8-1.9 1.9-1.9c1 0 1.8 0.9 1.8 1.9c0 1.1-0.8 2-1.8 2c-1.1 0-1.9-0.9-1.9-2z" /><path class="s0" d="m155.2 93.6c0 1.1-0.9 2-1.9 2c-1 0-1.9-0.9-1.9-2c0-1 0.9-1.9 1.9-1.9c1 0 1.9 0.9 1.9 1.9z" /><path class="s0" d="m168.3 93.6c-0.1-1 0.8-1.9 1.8-1.9c1.1 0 1.9 0.9 1.9 1.9c0 1.1-0.8 2-1.9 2c-1 0-1.9-0.9-1.9-2z" /></g><g style="opacity: 1"><path class="s0" d="m3.7 108.9c0 1.1-0.8 1.9-1.8 1.9c-1.1 0-1.9-0.8-1.9-1.9c0-1 0.8-1.9 1.9-1.9c1 0 1.8 0.9 1.8 1.9z" /><path class="s0" d="m20.6 108.9c0 1.1-0.9 1.9-1.9 1.9c-1 0-1.9-0.8-1.9-1.9c0-1 0.9-1.9 1.9-1.9c1 0 1.9 0.9 1.9 1.9z" /><path class="s0" d="m37.4 108.9c0 1.1-0.9 1.9-1.9 1.9c-1 0-1.9-0.8-1.9-1.9c0-1 0.9-1.9 1.9-1.9c1.1 0 1.9 0.9 1.9 1.9z" /><path class="s0" d="m54.2 108.9c0 1.1-0.8 1.9-1.9 1.9c-1 0-1.8-0.8-1.8-1.9c0-1 0.8-1.9 1.8-1.9c1.1 0 1.9 0.9 1.9 1.9z" /><path class="s0" d="m71 108.9c0 1.1-0.8 1.9-1.8 1.9c-1.1 0-1.9-0.8-1.9-1.9c0-1 0.8-1.9 1.9-1.9c1 0 1.8 0.9 1.8 1.9z" /><path class="s0" d="m87.9 108.9c0 1.1-0.9 1.9-1.9 1.9c-1 0-1.9-0.8-1.9-1.9c0-1 0.9-1.9 1.9-1.9c1 0 1.9 0.9 1.9 1.9z" /><path class="s0" d="m104.7 108.9c0 1.1-0.8 1.9-1.9 1.9c-1 0-1.9-0.8-1.9-1.9c0-1 0.9-1.9 1.9-1.9c1.1 0 1.9 0.9 1.9 1.9z" /><path class="s0" d="m121.5 108.9c0 1.1-0.8 1.9-1.9 1.9c-1 0-1.8-0.8-1.8-1.9c0-1 0.8-1.9 1.8-1.9c1.1 0 1.9 0.9 1.9 1.9z" /><path class="s0" d="m138.3 108.9c0 1.1-0.8 1.9-1.8 1.9c-1.1 0-1.9-0.8-1.9-1.9c0-1 0.8-1.9 1.9-1.9c1 0 1.8 0.9 1.8 1.9z" /><path class="s0" d="m155.2 108.9c0 1.1-0.9 1.9-1.9 1.9c-1 0-1.9-0.8-1.9-1.9c0-1 0.9-1.9 1.9-1.9c1 0 1.9 0.9 1.9 1.9z" /><path class="s0" d="m172 108.9c0 1.1-0.8 1.9-1.9 1.9c-1 0-1.9-0.8-1.9-1.9c0-1 0.9-1.9 1.9-1.9c1.1 0 1.9 0.9 1.9 1.9z" /></g><g style="opacity: 1"><path class="s0" d="m3.7 124.2c0 1.1-0.8 1.9-1.8 1.9c-1.1 0-1.9-0.8-1.9-1.9c0-1 0.8-1.9 1.9-1.9c1 0 1.8 0.9 1.8 1.9z" /><path class="s0" d="m20.6 124.2c0 1.1-0.9 1.9-1.9 1.9c-1 0-1.9-0.8-1.9-1.9c0-1 0.9-1.9 1.9-1.9c1 0 1.9 0.9 1.9 1.9z" /><path class="s0" d="m37.4 124.2c0 1.1-0.9 1.9-1.9 1.9c-1 0-1.9-0.8-1.9-1.9c0-1 0.9-1.9 1.9-1.9c1.1 0 1.9 0.9 1.9 1.9z" /><path class="s0" d="m54.2 124.2c0 1.1-0.8 1.9-1.9 1.9c-1 0-1.8-0.8-1.8-1.9c0-1 0.8-1.9 1.8-1.9c1.1 0 1.9 0.9 1.9 1.9z" /><path class="s0" d="m71 124.2c0 1.1-0.8 1.9-1.8 1.9c-1.1 0-1.9-0.8-1.9-1.9c0-1 0.8-1.9 1.9-1.9c1 0 1.8 0.9 1.8 1.9z" /><path class="s0" d="m87.9 124.2c0 1.1-0.9 1.9-1.9 1.9c-1 0-1.9-0.8-1.9-1.9c0-1 0.9-1.9 1.9-1.9c1 0 1.9 0.9 1.9 1.9z" /><path class="s0" d="m104.7 124.2c0 1.1-0.8 1.9-1.9 1.9c-1 0-1.9-0.8-1.9-1.9c0-1 0.9-1.9 1.9-1.9c1.1 0 1.9 0.9 1.9 1.9z" /><path class="s0" d="m121.5 124.2c0 1.1-0.8 1.9-1.9 1.9c-1 0-1.8-0.8-1.8-1.9c0-1 0.8-1.9 1.8-1.9c1.1 0 1.9 0.9 1.9 1.9z" /><path class="s0" d="m138.3 124.2c0 1.1-0.8 1.9-1.8 1.9c-1.1 0-1.9-0.8-1.9-1.9c0-1 0.8-1.9 1.9-1.9c1 0 1.8 0.9 1.8 1.9z" /><path class="s0" d="m155.2 124.2c0 1.1-0.9 1.9-1.9 1.9c-1 0-1.9-0.8-1.9-1.9c0-1 0.9-1.9 1.9-1.9c1 0 1.9 0.9 1.9 1.9z" /><path class="s0" d="m172 124.2c0 1.1-0.8 1.9-1.9 1.9c-1 0-1.9-0.8-1.9-1.9c0-1 0.9-1.9 1.9-1.9c1.1 0 1.9 0.9 1.9 1.9z" /></g><g style="opacity: 1"><path class="s0" d="m0 139.5c0-1 0.8-1.9 1.9-1.9c1 0 1.8 0.9 1.8 1.9c0 1.1-0.8 1.9-1.8 1.9c-1.1 0-1.9-0.8-1.9-1.9z" /><path class="s0" d="m16.8 139.5c0-1 0.9-1.9 1.9-1.9c1 0 1.9 0.9 1.9 1.9c0 1.1-0.9 1.9-1.9 1.9c-1 0-1.9-0.8-1.9-1.9z" /><path class="s0" d="m33.7 139.5c0-1 0.8-1.9 1.8-1.9c1.1 0 1.9 0.9 1.9 1.9c0 1.1-0.8 1.9-1.9 1.9c-1 0-1.8-0.8-1.8-1.9z" /><path class="s0" d="m50.5 139.5c0-1 0.8-1.9 1.8-1.9c1.1 0 1.9 0.9 1.9 1.9c0 1.1-0.8 1.9-1.9 1.9c-1 0-1.8-0.8-1.8-1.9z" /><path class="s0" d="m67.3 139.5c0-1 0.8-1.9 1.9-1.9c1 0 1.9 0.9 1.9 1.9c0 1.1-0.9 1.9-1.9 1.9c-1.1 0-1.9-0.8-1.9-1.9z" /><path class="s0" d="m87.9 139.5c0 1.1-0.9 1.9-1.9 1.9c-1 0-1.9-0.8-1.9-1.9c0-1.1 0.9-1.9 1.9-1.9c1 0 1.9 0.9 1.9 1.9z" /><path class="s0" d="m100.9 139.5c0-1 0.9-1.9 1.9-1.9c1.1 0 1.9 0.9 1.9 1.9c0 1.1-0.8 1.9-1.9 1.9c-1 0-1.9-0.8-1.9-1.9z" /><path class="s0" d="m121.5 139.5c0 1.1-0.8 1.9-1.9 1.9c-1 0-1.8-0.8-1.8-1.9c0-1.1 0.8-1.9 1.8-1.9c1.1 0 1.9 0.9 1.9 1.9z" /><path class="s0" d="m134.6 139.5c0-1 0.8-1.9 1.9-1.9c1 0 1.8 0.9 1.8 1.9c0 1.1-0.8 1.9-1.8 1.9c-1.1 0-1.9-0.8-1.9-1.9z" /><path class="s0" d="m155.2 139.5c0 1.1-0.9 1.9-1.9 1.9c-1 0-1.9-0.8-1.9-1.9c0-1.1 0.9-1.9 1.9-1.9c1 0 1.9 0.9 1.9 1.9z" /><path class="s0" d="m168.3 139.5c-0.1-1 0.8-1.9 1.8-1.9c1.1 0 1.9 0.9 1.9 1.9c0 1.1-0.8 1.9-1.9 1.9c-1 0-1.9-0.8-1.9-1.9z" /></g><g style="opacity: 1"><path class="s0" d="m3.7 154.8c0 1-0.8 1.9-1.8 1.9c-1.1 0-1.9-0.9-1.9-1.9c0-1.1 0.8-1.9 1.9-1.9c1 0 1.8 0.8 1.8 1.9z" /><path class="s0" d="m20.6 154.8c0 1-0.9 1.9-1.9 1.9c-1 0-1.9-0.9-1.9-1.9c0-1.1 0.9-1.9 1.9-1.9c1 0 1.9 0.8 1.9 1.9z" /><path class="s0" d="m37.4 154.8c0 1-0.9 1.9-1.9 1.9c-1 0-1.9-0.9-1.9-1.9c0-1.1 0.9-1.9 1.9-1.9c1.1 0 1.9 0.8 1.9 1.9z" /><path class="s0" d="m54.2 154.8c0 1-0.8 1.9-1.9 1.9c-1 0-1.8-0.9-1.8-1.9c0-1.1 0.8-1.9 1.8-1.9c1.1 0 1.9 0.8 1.9 1.9z" /><path class="s0" d="m71 154.8c0 1-0.8 1.9-1.8 1.9c-1.1 0-1.9-0.9-1.9-1.9c0-1.1 0.8-1.9 1.9-1.9c1 0 1.8 0.8 1.8 1.9z" /><path class="s0" d="m87.9 154.8c0 1-0.9 1.9-1.9 1.9c-1 0-1.9-0.9-1.9-1.9c0-1.1 0.9-1.9 1.9-1.9c1 0 1.9 0.8 1.9 1.9z" /><path class="s0" d="m104.7 154.8c0 1-0.8 1.9-1.9 1.9c-1 0-1.9-0.9-1.9-1.9c0-1.1 0.9-1.9 1.9-1.9c1.1 0 1.9 0.8 1.9 1.9z" /><path class="s0" d="m121.5 154.8c0 1-0.8 1.9-1.9 1.9c-1 0-1.8-0.9-1.8-1.9c0-1.1 0.8-1.9 1.8-1.9c1.1 0 1.9 0.8 1.9 1.9z" /><path class="s0" d="m138.3 154.8c0 1-0.8 1.9-1.8 1.9c-1.1 0-1.9-0.9-1.9-1.9c0-1.1 0.8-1.9 1.9-1.9c1 0 1.8 0.8 1.8 1.9z" /><path class="s0" d="m155.2 154.8c0 1-0.9 1.9-1.9 1.9c-1 0-1.9-0.9-1.9-1.9c0-1.1 0.9-1.9 1.9-1.9c1 0 1.9 0.8 1.9 1.9z" /><path class="s0" d="m172 154.8c0 1-0.8 1.9-1.9 1.9c-1 0-1.9-0.9-1.9-1.9c0-1.1 0.9-1.9 1.9-1.9c1.1 0 1.9 0.8 1.9 1.9z" /></g><g style="opacity: 1"><path class="s0" d="m0 170.1c0-1.1 0.8-1.9 1.9-1.9c1 0 1.8 0.8 1.8 1.9c0 1-0.8 1.9-1.8 1.9c-1.1 0-1.9-0.9-1.9-1.9z" /><path class="s0" d="m16.8 170.1c0-1.1 0.9-1.9 1.9-1.9c1 0 1.9 0.8 1.9 1.9c0 1-0.9 1.9-1.9 1.9c-1 0-1.9-0.9-1.9-1.9z" /><path class="s0" d="m33.7 170.1c0-1.1 0.8-1.9 1.8-1.9c1.1 0 1.9 0.8 1.9 1.9c0 1-0.8 1.9-1.9 1.9c-1 0-1.8-0.9-1.8-1.9z" /><path class="s0" d="m50.5 170.1c0-1.1 0.8-1.9 1.8-1.9c1.1 0 1.9 0.8 1.9 1.9c0 1-0.8 1.9-1.9 1.9c-1 0-1.8-0.9-1.8-1.9z" /><path class="s0" d="m67.3 170.1c0-1.1 0.8-1.9 1.9-1.9c1 0 1.9 0.8 1.9 1.9c0 1-0.9 1.9-1.9 1.9c-1.1 0-1.9-0.9-1.9-1.9z" /><path class="s0" d="m87.9 170.1c0 1-0.9 1.9-1.9 1.9c-1 0-1.9-0.9-1.9-1.9c0-1.1 0.9-1.9 1.9-1.9c1 0 1.9 0.8 1.9 1.9z" /><path class="s0" d="m100.9 170.1c0-1.1 0.9-1.9 1.9-1.9c1.1 0 1.9 0.8 1.9 1.9c0 1-0.8 1.9-1.9 1.9c-1 0-1.9-0.9-1.9-1.9z" /><path class="s0" d="m121.5 170.1c0 1-0.8 1.9-1.9 1.9c-1 0-1.8-0.9-1.8-1.9c0-1.1 0.8-1.9 1.8-1.9c1.1 0 1.9 0.8 1.9 1.9z" /><path class="s0" d="m134.6 170.1c0-1.1 0.8-1.9 1.9-1.9c1 0 1.8 0.8 1.8 1.9c0 1-0.8 1.9-1.8 1.9c-1.1 0-1.9-0.9-1.9-1.9z" /><path class="s0" d="m155.2 170.1c0 1-0.9 1.9-1.9 1.9c-1 0-1.9-0.9-1.9-1.9c0-1.1 0.9-1.9 1.9-1.9c1 0 1.9 0.8 1.9 1.9z" /><path class="s0" d="m168.3 170.1c-0.1-1.1 0.8-1.9 1.8-1.9c1.1 0 1.9 0.8 1.9 1.9c0 1-0.8 1.9-1.9 1.9c-1 0-1.9-0.9-1.9-1.9z" /></g></g></svg>